<?xml version="1.0" encoding="UTF-8"?>
<!DOCTYPE svg PUBLIC "-//W3C//DTD SVG 1.1//EN" "http://www.w3.org/Graphics/SVG/1.1/DTD/svg11.dtd">
<!-- Creator: CorelDRAW X8 -->
<svg xmlns="http://www.w3.org/2000/svg" xml:space="preserve" width="395px" height="580px" version="1.1" style="shape-rendering:geometricPrecision; text-rendering:geometricPrecision; image-rendering:optimizeQuality; fill-rule:evenodd; clip-rule:evenodd"
viewBox="0 0 395 580"
 xmlns:xlink="http://www.w3.org/1999/xlink">
 <defs>
  <style type="text/css">
   <![CDATA[
    .fil0 {fill:#205179}
    .fil1 {fill:#88A2B7}
    .fil3 {fill:#EFF6FC}
    .fil2 {fill:white}
   ]]>
  </style>
 </defs>
 <g id="Layer_x0020_1">
  <metadata id="CorelCorpID_0Corel-Layer"/>
  <g id="_1955017803136">
   <path class="fil0" d="M296 218c0,1 1,2 2,2 2,-24 2,-48 0,-72 -2,-24 -13,-43 -34,-55 -44,-22 -88,-22 -131,0 -16,11 -27,25 -34,43 0,15 -1,31 -3,46 -5,15 -15,22 -30,22 -24,-4 -35,-18 -32,-42 1,-53 23,-94 68,-122 75,-40 147,-34 215,16 22,19 36,44 43,72 0,52 1,104 1,156 40,78 34,151 -19,219 -59,61 -129,79 -209,55 -79,-34 -120,-94 -124,-179 6,-95 55,-156 145,-183 50,-10 97,-3 142,22z"/>
  </g>
  <g id="_1955017802272">
   <path class="fil1" d="M298 148c2,24 2,48 0,72 -1,0 -2,-1 -2,-2 2,-23 2,-46 2,-70z"/>
  </g>
  <g id="_1955017801984">
   <path class="fil2" d="M179 261c71,-5 117,27 137,95 1,9 2,18 1,27 -19,0 -39,0 -59,-1 -2,-30 -17,-50 -47,-59 -35,-5 -58,9 -70,42 -5,45 15,70 60,76 0,19 0,39 -1,59 -54,-1 -93,-26 -115,-76 -21,-71 2,-124 69,-157 9,-2 17,-4 25,-6z"/>
  </g>
  <g id="_1955017801024">
   <path class="fil2" d="M256 388c20,2 40,5 60,7 1,2 2,5 1,8 -19,-3 -38,-5 -57,-6 -3,-2 -4,-5 -4,-9z"/>
  </g>
  <g id="_1955017802880">
   <path class="fil3" d="M255 401c18,7 37,14 55,22 0,2 0,4 0,7 -5,0 -10,-1 -14,-3 -14,-6 -29,-12 -43,-17 0,-3 0,-6 2,-9z"/>
  </g>
  <g id="_1955017801472">
   <path class="fil2" d="M246 415c2,0 4,0 7,1 14,11 27,21 41,32 2,2 2,4 2,7 -3,0 -5,0 -7,-1 -14,-10 -28,-20 -42,-31 -1,-2 -2,-5 -1,-8z"/>
  </g>
  <g id="_1955017799456">
   <path class="fil2" d="M235 426c2,0 3,0 5,1 13,14 24,28 35,42 2,5 0,7 -4,6 -12,-14 -24,-28 -35,-42 -1,-2 -1,-4 -1,-7z"/>
  </g>
  <g id="_1955017791200">
   <path class="fil2" d="M222 435c3,0 5,0 7,2 7,14 14,29 21,43 1,4 1,7 1,11 -2,0 -5,-1 -6,-2 -9,-17 -17,-35 -23,-54z"/>
  </g>
  <g id="_1955017788736">
   <path class="fil2" d="M208 439c5,-1 8,2 8,7 4,18 6,36 8,54 -2,0 -5,0 -7,0 -4,-20 -7,-41 -9,-61z"/>
  </g>
 </g>
</svg>
